<?xml version="1.0" encoding="UTF-8" standalone="no"?>
<!DOCTYPE svg PUBLIC "-//W3C//DTD SVG 1.1//EN"
 "http://www.w3.org/Graphics/SVG/1.1/DTD/svg11.dtd">
<!-- Generated by graphviz version 2.38.0 (20140413.2041)
 -->
<!-- Title: GrodnoCompanies_Jobs Pages: 1 -->
<svg width="2462pt" height="2265pt"
 viewBox="0.00 0.00 2461.91 2265.43" xmlns="http://www.w3.org/2000/svg" xmlns:xlink="http://www.w3.org/1999/xlink">
<g id="graph0" class="graph" transform="scale(1 1) rotate(0) translate(4 2261.43)">
<title>GrodnoCompanies_Jobs</title>
<polygon fill="white" stroke="none" points="-4,4 -4,-2261.43 2457.91,-2261.43 2457.91,4 -4,4"/>
<!-- . -->
<g id="node1" class="node"><title>.</title>
</g>
<!-- Java -->
<g id="node2" class="node"><title>Java</title>
<image xlink:href="icons/java.png" width="66px" height="66px" preserveAspectRatio="xMinYMin meet" x="225.175" y="-1052.16"/>
<text text-anchor="start" x="243.675" y="-968.959" font-family="Times New Roman,serif" font-size="14.00">Java </text>
<path fill="none" stroke="black" d="M232.175,-960.659C232.175,-960.659 284.175,-960.659 284.175,-960.659 290.175,-960.659 296.175,-966.659 296.175,-972.659 296.175,-972.659 296.175,-1045.66 296.175,-1045.66 296.175,-1051.66 290.175,-1057.66 284.175,-1057.66 284.175,-1057.66 232.175,-1057.66 232.175,-1057.66 226.175,-1057.66 220.175,-1051.66 220.175,-1045.66 220.175,-1045.66 220.175,-972.659 220.175,-972.659 220.175,-966.659 226.175,-960.659 232.175,-960.659"/>
</g>
<!-- .Net -->
<g id="node3" class="node"><title>.Net</title>
<image xlink:href="icons/net.png" width="66px" height="66px" preserveAspectRatio="xMinYMin meet" x="275.325" y="-826.283"/>
<text text-anchor="start" x="295.825" y="-743.083" font-family="Times New Roman,serif" font-size="14.00">.Net</text>
<path fill="none" stroke="black" d="M282.325,-734.783C282.325,-734.783 334.325,-734.783 334.325,-734.783 340.325,-734.783 346.325,-740.783 346.325,-746.783 346.325,-746.783 346.325,-819.783 346.325,-819.783 346.325,-825.783 340.325,-831.783 334.325,-831.783 334.325,-831.783 282.325,-831.783 282.325,-831.783 276.325,-831.783 270.325,-825.783 270.325,-819.783 270.325,-819.783 270.325,-746.783 270.325,-746.783 270.325,-740.783 276.325,-734.783 282.325,-734.783"/>
</g>
<!-- React.js -->
<g id="node4" class="node"><title>React.js</title>
<image xlink:href="icons/react.png" width="86px" height="86px" preserveAspectRatio="xMinYMin meet" x="367.6" y="-617.712"/>
<text text-anchor="start" x="388.1" y="-514.512" font-family="Times New Roman,serif" font-size="14.00">React.js</text>
<path fill="none" stroke="black" d="M374.6,-506.212C374.6,-506.212 446.6,-506.212 446.6,-506.212 452.6,-506.212 458.6,-512.212 458.6,-518.212 458.6,-518.212 458.6,-611.212 458.6,-611.212 458.6,-617.212 452.6,-623.212 446.6,-623.212 446.6,-623.212 374.6,-623.212 374.6,-623.212 368.6,-623.212 362.6,-617.212 362.6,-611.212 362.6,-611.212 362.6,-518.212 362.6,-518.212 362.6,-512.212 368.6,-506.212 374.6,-506.212"/>
</g>
<!-- DevOps -->
<g id="node5" class="node"><title>DevOps</title>
<image xlink:href="icons/devops.png" width="136px" height="66px" preserveAspectRatio="xMinYMin meet" x="511.01" y="-397.162"/>
<text text-anchor="start" x="555.01" y="-313.962" font-family="Times New Roman,serif" font-size="14.00">DevOps</text>
<path fill="none" stroke="black" d="M518.01,-305.662C518.01,-305.662 640.01,-305.662 640.01,-305.662 646.01,-305.662 652.01,-311.662 652.01,-317.662 652.01,-317.662 652.01,-390.662 652.01,-390.662 652.01,-396.662 646.01,-402.662 640.01,-402.662 640.01,-402.662 518.01,-402.662 518.01,-402.662 512.01,-402.662 506.01,-396.662 506.01,-390.662 506.01,-390.662 506.01,-317.662 506.01,-317.662 506.01,-311.662 512.01,-305.662 518.01,-305.662"/>
</g>
<!-- Node.js -->
<g id="node6" class="node"><title>Node.js</title>
<image xlink:href="icons/node.js.png" width="96px" height="66px" preserveAspectRatio="xMinYMin meet" x="745.003" y="-235.609"/>
<text text-anchor="start" x="770.503" y="-152.409" font-family="Times New Roman,serif" font-size="14.00">Node.js</text>
<path fill="none" stroke="black" d="M752.003,-144.109C752.003,-144.109 834.003,-144.109 834.003,-144.109 840.003,-144.109 846.003,-150.109 846.003,-156.109 846.003,-156.109 846.003,-229.109 846.003,-229.109 846.003,-235.109 840.003,-241.109 834.003,-241.109 834.003,-241.109 752.003,-241.109 752.003,-241.109 746.003,-241.109 740.003,-235.109 740.003,-229.109 740.003,-229.109 740.003,-156.109 740.003,-156.109 740.003,-150.109 746.003,-144.109 752.003,-144.109"/>
</g>
<!-- PHP -->
<g id="node7" class="node"><title>PHP</title>
<image xlink:href="icons/php.png" width="66px" height="66px" preserveAspectRatio="xMinYMin meet" x="979.852" y="-139.781"/>
<text text-anchor="start" x="998.852" y="-56.5811" font-family="Times New Roman,serif" font-size="14.00">PHP</text>
<path fill="none" stroke="black" d="M986.852,-48.2811C986.852,-48.2811 1038.85,-48.2811 1038.85,-48.2811 1044.85,-48.2811 1050.85,-54.2811 1050.85,-60.2811 1050.85,-60.2811 1050.85,-133.281 1050.85,-133.281 1050.85,-139.281 1044.85,-145.281 1038.85,-145.281 1038.85,-145.281 986.852,-145.281 986.852,-145.281 980.852,-145.281 974.852,-139.281 974.852,-133.281 974.852,-133.281 974.852,-60.2811 974.852,-60.2811 974.852,-54.2811 980.852,-48.2811 986.852,-48.2811"/>
</g>
<!-- C# -->
<g id="node8" class="node"><title>C#</title>
<image xlink:href="icons/c_sharp.png" width="66px" height="66px" preserveAspectRatio="xMinYMin meet" x="1206.95" y="-95.5"/>
<text text-anchor="start" x="1224.95" y="-12.3" font-family="Times New Roman,serif" font-size="14.00">&quot;C#&quot;</text>
<path fill="none" stroke="black" d="M1213.95,-4C1213.95,-4 1265.95,-4 1265.95,-4 1271.95,-4 1277.95,-10 1277.95,-16 1277.95,-16 1277.95,-89 1277.95,-89 1277.95,-95 1271.95,-101 1265.95,-101 1265.95,-101 1213.95,-101 1213.95,-101 1207.95,-101 1201.95,-95 1201.95,-89 1201.95,-89 1201.95,-16 1201.95,-16 1201.95,-10 1207.95,-4 1213.95,-4"/>
</g>
<!-- Magento -->
<g id="node9" class="node"><title>Magento</title>
<image xlink:href="icons/magento.png" width="66px" height="66px" preserveAspectRatio="xMinYMin meet" x="1438.27" y="-100.585"/>
<text text-anchor="start" x="1445.27" y="-17.3854" font-family="Times New Roman,serif" font-size="14.00">Magento</text>
<path fill="none" stroke="black" d="M1445.27,-9.08537C1445.27,-9.08537 1497.27,-9.08537 1497.27,-9.08537 1503.27,-9.08537 1509.27,-15.0854 1509.27,-21.0854 1509.27,-21.0854 1509.27,-94.0854 1509.27,-94.0854 1509.27,-100.085 1503.27,-106.085 1497.27,-106.085 1497.27,-106.085 1445.27,-106.085 1445.27,-106.085 1439.27,-106.085 1433.27,-100.085 1433.27,-94.0854 1433.27,-94.0854 1433.27,-21.0854 1433.27,-21.0854 1433.27,-15.0854 1439.27,-9.08537 1445.27,-9.08537"/>
</g>
<!-- Full Stack -->
<g id="node10" class="node"><title>Full Stack</title>
<image xlink:href="icons/fullstack.png" width="66px" height="66px" preserveAspectRatio="xMinYMin meet" x="1663.21" y="-154.804"/>
<text text-anchor="start" x="1666.71" y="-71.604" font-family="Times New Roman,serif" font-size="14.00">Full Stack</text>
<path fill="none" stroke="black" d="M1670.21,-63.304C1670.21,-63.304 1722.21,-63.304 1722.21,-63.304 1728.21,-63.304 1734.21,-69.304 1734.21,-75.304 1734.21,-75.304 1734.21,-148.304 1734.21,-148.304 1734.21,-154.304 1728.21,-160.304 1722.21,-160.304 1722.21,-160.304 1670.21,-160.304 1670.21,-160.304 1664.21,-160.304 1658.21,-154.304 1658.21,-148.304 1658.21,-148.304 1658.21,-75.304 1658.21,-75.304 1658.21,-69.304 1664.21,-63.304 1670.21,-63.304"/>
</g>
<!-- IT sales manager -->
<g id="node11" class="node"><title>IT sales manager</title>
<image xlink:href="icons/it.jpg" width="96px" height="86px" preserveAspectRatio="xMinYMin meet" x="1865.4" y="-271.007"/>
<text text-anchor="start" x="1864.9" y="-167.807" font-family="Times New Roman,serif" font-size="14.00">IT sales manager</text>
<path fill="none" stroke="black" d="M1871.4,-159.507C1871.4,-159.507 1954.4,-159.507 1954.4,-159.507 1960.4,-159.507 1966.4,-165.507 1966.4,-171.507 1966.4,-171.507 1966.4,-264.507 1966.4,-264.507 1966.4,-270.507 1960.4,-276.507 1954.4,-276.507 1954.4,-276.507 1871.4,-276.507 1871.4,-276.507 1865.4,-276.507 1859.4,-270.507 1859.4,-264.507 1859.4,-264.507 1859.4,-171.507 1859.4,-171.507 1859.4,-165.507 1865.4,-159.507 1871.4,-159.507"/>
</g>
<!-- QA -->
<g id="node12" class="node"><title>QA</title>
<image xlink:href="icons/qa.png" width="66px" height="66px" preserveAspectRatio="xMinYMin meet" x="2067.61" y="-412.653"/>
<text text-anchor="start" x="2089.61" y="-329.453" font-family="Times New Roman,serif" font-size="14.00">QA</text>
<path fill="none" stroke="black" d="M2074.61,-321.153C2074.61,-321.153 2126.61,-321.153 2126.61,-321.153 2132.61,-321.153 2138.61,-327.153 2138.61,-333.153 2138.61,-333.153 2138.61,-406.153 2138.61,-406.153 2138.61,-412.153 2132.61,-418.153 2126.61,-418.153 2126.61,-418.153 2074.61,-418.153 2074.61,-418.153 2068.61,-418.153 2062.61,-412.153 2062.61,-406.153 2062.61,-406.153 2062.61,-333.153 2062.61,-333.153 2062.61,-327.153 2068.61,-321.153 2074.61,-321.153"/>
</g>
<!-- System Administrator -->
<g id="node13" class="node"><title>System Administrator</title>
<image xlink:href="icons/sys admin.png" width="66px" height="66px" preserveAspectRatio="xMinYMin meet" x="2224.04" y="-613.693"/>
<text text-anchor="start" x="2194.04" y="-530.493" font-family="Times New Roman,serif" font-size="14.00">System Administrator</text>
<path fill="none" stroke="black" d="M2201.04,-522.193C2201.04,-522.193 2313.04,-522.193 2313.04,-522.193 2319.04,-522.193 2325.04,-528.193 2325.04,-534.193 2325.04,-534.193 2325.04,-607.193 2325.04,-607.193 2325.04,-613.193 2319.04,-619.193 2313.04,-619.193 2313.04,-619.193 2201.04,-619.193 2201.04,-619.193 2195.04,-619.193 2189.04,-613.193 2189.04,-607.193 2189.04,-607.193 2189.04,-534.193 2189.04,-534.193 2189.04,-528.193 2195.04,-522.193 2201.04,-522.193"/>
</g>
<!-- Frontend -->
<g id="node14" class="node"><title>Frontend</title>
<image xlink:href="icons/frontend.png" width="66px" height="66px" preserveAspectRatio="xMinYMin meet" x="2329.05" y="-845.766"/>
<text text-anchor="start" x="2335.55" y="-762.566" font-family="Times New Roman,serif" font-size="14.00">Frontend</text>
<path fill="none" stroke="black" d="M2336.05,-754.266C2336.05,-754.266 2388.05,-754.266 2388.05,-754.266 2394.05,-754.266 2400.05,-760.266 2400.05,-766.266 2400.05,-766.266 2400.05,-839.266 2400.05,-839.266 2400.05,-845.266 2394.05,-851.266 2388.05,-851.266 2388.05,-851.266 2336.05,-851.266 2336.05,-851.266 2330.05,-851.266 2324.05,-845.266 2324.05,-839.266 2324.05,-839.266 2324.05,-766.266 2324.05,-766.266 2324.05,-760.266 2330.05,-754.266 2336.05,-754.266"/>
</g>
<!-- Ruby -->
<g id="node15" class="node"><title>Ruby</title>
<image xlink:href="icons/ruby.png" width="66px" height="66px" preserveAspectRatio="xMinYMin meet" x="2374.91" y="-1072.55"/>
<text text-anchor="start" x="2391.41" y="-989.353" font-family="Times New Roman,serif" font-size="14.00">Ruby</text>
<path fill="none" stroke="black" d="M2381.91,-981.053C2381.91,-981.053 2433.91,-981.053 2433.91,-981.053 2439.91,-981.053 2445.91,-987.053 2445.91,-993.053 2445.91,-993.053 2445.91,-1066.05 2445.91,-1066.05 2445.91,-1072.05 2439.91,-1078.05 2433.91,-1078.05 2433.91,-1078.05 2381.91,-1078.05 2381.91,-1078.05 2375.91,-1078.05 2369.91,-1072.05 2369.91,-1066.05 2369.91,-1066.05 2369.91,-993.053 2369.91,-993.053 2369.91,-987.053 2375.91,-981.053 2381.91,-981.053"/>
</g>
<!-- Python -->
<g id="node16" class="node"><title>Python</title>
<image xlink:href="icons/python.png" width="66px" height="66px" preserveAspectRatio="xMinYMin meet" x="2371.43" y="-1303.9"/>
<text text-anchor="start" x="2382.93" y="-1220.7" font-family="Times New Roman,serif" font-size="14.00">Python</text>
<path fill="none" stroke="black" d="M2378.43,-1212.4C2378.43,-1212.4 2430.43,-1212.4 2430.43,-1212.4 2436.43,-1212.4 2442.43,-1218.4 2442.43,-1224.4 2442.43,-1224.4 2442.43,-1297.4 2442.43,-1297.4 2442.43,-1303.4 2436.43,-1309.4 2430.43,-1309.4 2430.43,-1309.4 2378.43,-1309.4 2378.43,-1309.4 2372.43,-1309.4 2366.43,-1303.4 2366.43,-1297.4 2366.43,-1297.4 2366.43,-1224.4 2366.43,-1224.4 2366.43,-1218.4 2372.43,-1212.4 2378.43,-1212.4"/>
</g>
<!-- HR -->
<g id="node17" class="node"><title>HR</title>
<image xlink:href="icons/hr.png" width="66px" height="66px" preserveAspectRatio="xMinYMin meet" x="2318.77" y="-1529.21"/>
<text text-anchor="start" x="2341.27" y="-1446.01" font-family="Times New Roman,serif" font-size="14.00">HR</text>
<path fill="none" stroke="black" d="M2325.77,-1437.71C2325.77,-1437.71 2377.77,-1437.71 2377.77,-1437.71 2383.77,-1437.71 2389.77,-1443.71 2389.77,-1449.71 2389.77,-1449.71 2389.77,-1522.71 2389.77,-1522.71 2389.77,-1528.71 2383.77,-1534.71 2377.77,-1534.71 2377.77,-1534.71 2325.77,-1534.71 2325.77,-1534.71 2319.77,-1534.71 2313.77,-1528.71 2313.77,-1522.71 2313.77,-1522.71 2313.77,-1449.71 2313.77,-1449.71 2313.77,-1443.71 2319.77,-1437.71 2325.77,-1437.71"/>
</g>
<!-- iOS -->
<g id="node18" class="node"><title>iOS</title>
<image xlink:href="icons/ios.png" width="66px" height="66px" preserveAspectRatio="xMinYMin meet" x="2219.35" y="-1738.14"/>
<text text-anchor="start" x="2240.85" y="-1654.94" font-family="Times New Roman,serif" font-size="14.00">iOS</text>
<path fill="none" stroke="black" d="M2226.35,-1646.64C2226.35,-1646.64 2278.35,-1646.64 2278.35,-1646.64 2284.35,-1646.64 2290.35,-1652.64 2290.35,-1658.64 2290.35,-1658.64 2290.35,-1731.64 2290.35,-1731.64 2290.35,-1737.64 2284.35,-1743.64 2278.35,-1743.64 2278.35,-1743.64 2226.35,-1743.64 2226.35,-1743.64 2220.35,-1743.64 2214.35,-1737.64 2214.35,-1731.64 2214.35,-1731.64 2214.35,-1658.64 2214.35,-1658.64 2214.35,-1652.64 2220.35,-1646.64 2226.35,-1646.64"/>
</g>
<!-- Data Scientist -->
<g id="node19" class="node"><title>Data Scientist</title>
<image xlink:href="icons/data scientist.png" width="66px" height="66px" preserveAspectRatio="xMinYMin meet" x="2078.23" y="-1921.11"/>
<text text-anchor="start" x="2071.73" y="-1837.91" font-family="Times New Roman,serif" font-size="14.00">Data Scientist</text>
<path fill="none" stroke="black" d="M2078.23,-1829.61C2078.23,-1829.61 2143.23,-1829.61 2143.23,-1829.61 2149.23,-1829.61 2155.23,-1835.61 2155.23,-1841.61 2155.23,-1841.61 2155.23,-1914.61 2155.23,-1914.61 2155.23,-1920.61 2149.23,-1926.61 2143.23,-1926.61 2143.23,-1926.61 2078.23,-1926.61 2078.23,-1926.61 2072.23,-1926.61 2066.23,-1920.61 2066.23,-1914.61 2066.23,-1914.61 2066.23,-1841.61 2066.23,-1841.61 2066.23,-1835.61 2072.23,-1829.61 2078.23,-1829.61"/>
</g>
<!-- Mobile Web Applications -->
<g id="node20" class="node"><title>Mobile Web Applications</title>
<image xlink:href="icons/mob web app.png" width="56px" height="76px" preserveAspectRatio="xMinYMin meet" x="1874.82" y="-2094.8"/>
<text text-anchor="start" x="1826.32" y="-2001.6" font-family="Times New Roman,serif" font-size="14.00">Mobile Web Applications </text>
<path fill="none" stroke="black" d="M1832.82,-1993.3C1832.82,-1993.3 1971.82,-1993.3 1971.82,-1993.3 1977.82,-1993.3 1983.82,-1999.3 1983.82,-2005.3 1983.82,-2005.3 1983.82,-2088.3 1983.82,-2088.3 1983.82,-2094.3 1977.82,-2100.3 1971.82,-2100.3 1971.82,-2100.3 1832.82,-2100.3 1832.82,-2100.3 1826.82,-2100.3 1820.82,-2094.3 1820.82,-2088.3 1820.82,-2088.3 1820.82,-2005.3 1820.82,-2005.3 1820.82,-1999.3 1826.82,-1993.3 1832.82,-1993.3"/>
</g>
<!-- Hypris -->
<g id="node21" class="node"><title>Hypris</title>
<image xlink:href="icons/hypris.png" width="66px" height="66px" preserveAspectRatio="xMinYMin meet" x="1625.78" y="-2201.97"/>
<text text-anchor="start" x="1638.78" y="-2118.77" font-family="Times New Roman,serif" font-size="14.00">Hypris</text>
<path fill="none" stroke="black" d="M1632.78,-2110.47C1632.78,-2110.47 1684.78,-2110.47 1684.78,-2110.47 1690.78,-2110.47 1696.78,-2116.47 1696.78,-2122.47 1696.78,-2122.47 1696.78,-2195.47 1696.78,-2195.47 1696.78,-2201.47 1690.78,-2207.47 1684.78,-2207.47 1684.78,-2207.47 1632.78,-2207.47 1632.78,-2207.47 1626.78,-2207.47 1620.78,-2201.47 1620.78,-2195.47 1620.78,-2195.47 1620.78,-2122.47 1620.78,-2122.47 1620.78,-2116.47 1626.78,-2110.47 1632.78,-2110.47"/>
</g>
<!-- Linux -->
<g id="node22" class="node"><title>Linux</title>
<image xlink:href="icons/linux.png" width="66px" height="66px" preserveAspectRatio="xMinYMin meet" x="1399.02" y="-2247.93"/>
<text text-anchor="start" x="1414.02" y="-2164.73" font-family="Times New Roman,serif" font-size="14.00">Linux</text>
<path fill="none" stroke="black" d="M1406.02,-2156.43C1406.02,-2156.43 1458.02,-2156.43 1458.02,-2156.43 1464.02,-2156.43 1470.02,-2162.43 1470.02,-2168.43 1470.02,-2168.43 1470.02,-2241.43 1470.02,-2241.43 1470.02,-2247.43 1464.02,-2253.43 1458.02,-2253.43 1458.02,-2253.43 1406.02,-2253.43 1406.02,-2253.43 1400.02,-2253.43 1394.02,-2247.43 1394.02,-2241.43 1394.02,-2241.43 1394.02,-2168.43 1394.02,-2168.43 1394.02,-2162.43 1400.02,-2156.43 1406.02,-2156.43"/>
</g>
<!-- Go -->
<g id="node23" class="node"><title>Go</title>
<image xlink:href="icons/go.png" width="66px" height="66px" preserveAspectRatio="xMinYMin meet" x="1167.67" y="-2244.56"/>
<text text-anchor="start" x="1191.17" y="-2161.36" font-family="Times New Roman,serif" font-size="14.00">Go</text>
<path fill="none" stroke="black" d="M1174.67,-2153.06C1174.67,-2153.06 1226.67,-2153.06 1226.67,-2153.06 1232.67,-2153.06 1238.67,-2159.06 1238.67,-2165.06 1238.67,-2165.06 1238.67,-2238.06 1238.67,-2238.06 1238.67,-2244.06 1232.67,-2250.06 1226.67,-2250.06 1226.67,-2250.06 1174.67,-2250.06 1174.67,-2250.06 1168.67,-2250.06 1162.67,-2244.06 1162.67,-2238.06 1162.67,-2238.06 1162.67,-2165.06 1162.67,-2165.06 1162.67,-2159.06 1168.67,-2153.06 1174.67,-2153.06"/>
</g>
<!-- Blockchain -->
<g id="node24" class="node"><title>Blockchain</title>
<image xlink:href="icons/blockchain.png" width="66px" height="66px" preserveAspectRatio="xMinYMin meet" x="942.336" y="-2192.01"/>
<text text-anchor="start" x="942.336" y="-2108.81" font-family="Times New Roman,serif" font-size="14.00">Blockchain</text>
<path fill="none" stroke="black" d="M949.336,-2100.51C949.336,-2100.51 1001.34,-2100.51 1001.34,-2100.51 1007.34,-2100.51 1013.34,-2106.51 1013.34,-2112.51 1013.34,-2112.51 1013.34,-2185.51 1013.34,-2185.51 1013.34,-2191.51 1007.34,-2197.51 1001.34,-2197.51 1001.34,-2197.51 949.336,-2197.51 949.336,-2197.51 943.336,-2197.51 937.336,-2191.51 937.336,-2185.51 937.336,-2185.51 937.336,-2112.51 937.336,-2112.51 937.336,-2106.51 943.336,-2100.51 949.336,-2100.51"/>
</g>
<!-- Angular2 -->
<g id="node25" class="node"><title>Angular2</title>
<image xlink:href="icons/angular2.png" width="66px" height="66px" preserveAspectRatio="xMinYMin meet" x="733.361" y="-2092.69"/>
<text text-anchor="start" x="738.861" y="-2009.49" font-family="Times New Roman,serif" font-size="14.00">Angular2</text>
<path fill="none" stroke="black" d="M740.361,-2001.19C740.361,-2001.19 792.361,-2001.19 792.361,-2001.19 798.361,-2001.19 804.361,-2007.19 804.361,-2013.19 804.361,-2013.19 804.361,-2086.19 804.361,-2086.19 804.361,-2092.19 798.361,-2098.19 792.361,-2098.19 792.361,-2098.19 740.361,-2098.19 740.361,-2098.19 734.361,-2098.19 728.361,-2092.19 728.361,-2086.19 728.361,-2086.19 728.361,-2013.19 728.361,-2013.19 728.361,-2007.19 734.361,-2001.19 740.361,-2001.19"/>
</g>
<!-- Project manager -->
<g id="node26" class="node"><title>Project manager</title>
<image xlink:href="icons/pm.jpg" width="66px" height="66px" preserveAspectRatio="xMinYMin meet" x="545.793" y="-1946.28"/>
<text text-anchor="start" x="532.293" y="-1863.08" font-family="Times New Roman,serif" font-size="14.00">Project manager</text>
<path fill="none" stroke="black" d="M538.793,-1854.78C538.793,-1854.78 617.793,-1854.78 617.793,-1854.78 623.793,-1854.78 629.793,-1860.78 629.793,-1866.78 629.793,-1866.78 629.793,-1939.78 629.793,-1939.78 629.793,-1945.78 623.793,-1951.78 617.793,-1951.78 617.793,-1951.78 538.793,-1951.78 538.793,-1951.78 532.793,-1951.78 526.793,-1945.78 526.793,-1939.78 526.793,-1939.78 526.793,-1866.78 526.793,-1866.78 526.793,-1860.78 532.793,-1854.78 538.793,-1854.78"/>
</g>
<!-- Android -->
<g id="node27" class="node"><title>Android</title>
<image xlink:href="icons/android.png" width="56px" height="66px" preserveAspectRatio="xMinYMin meet" x="398.896" y="-1762.21"/>
<text text-anchor="start" x="402.396" y="-1679.01" font-family="Times New Roman,serif" font-size="14.00">Android</text>
<path fill="none" stroke="black" d="M405.896,-1670.71C405.896,-1670.71 447.896,-1670.71 447.896,-1670.71 453.896,-1670.71 459.896,-1676.71 459.896,-1682.71 459.896,-1682.71 459.896,-1755.71 459.896,-1755.71 459.896,-1761.71 453.896,-1767.71 447.896,-1767.71 447.896,-1767.71 405.896,-1767.71 405.896,-1767.71 399.896,-1767.71 393.896,-1761.71 393.896,-1755.71 393.896,-1755.71 393.896,-1682.71 393.896,-1682.71 393.896,-1676.71 399.896,-1670.71 405.896,-1670.71"/>
</g>
<!-- Business Analyst -->
<g id="node28" class="node"><title>Business Analyst</title>
<image xlink:href="icons/ba.png" width="66px" height="66px" preserveAspectRatio="xMinYMin meet" x="283.928" y="-1540.98"/>
<text text-anchor="start" x="261.428" y="-1457.78" font-family="Times New Roman,serif" font-size="14.00">&quot;Business Analyst&quot;</text>
<path fill="none" stroke="black" d="M267.928,-1449.48C267.928,-1449.48 364.928,-1449.48 364.928,-1449.48 370.928,-1449.48 376.928,-1455.48 376.928,-1461.48 376.928,-1461.48 376.928,-1534.48 376.928,-1534.48 376.928,-1540.48 370.928,-1546.48 364.928,-1546.48 364.928,-1546.48 267.928,-1546.48 267.928,-1546.48 261.928,-1546.48 255.928,-1540.48 255.928,-1534.48 255.928,-1534.48 255.928,-1461.48 255.928,-1461.48 255.928,-1455.48 261.928,-1449.48 267.928,-1449.48"/>
</g>
<!-- 1C -->
<g id="node29" class="node"><title>1C</title>
<image xlink:href="icons/1c.png" width="96px" height="66px" preserveAspectRatio="xMinYMin meet" x="210.175" y="-1291.98"/>
<text text-anchor="start" x="249.175" y="-1208.78" font-family="Times New Roman,serif" font-size="14.00">1C</text>
<path fill="none" stroke="black" d="M217.175,-1200.48C217.175,-1200.48 299.175,-1200.48 299.175,-1200.48 305.175,-1200.48 311.175,-1206.48 311.175,-1212.48 311.175,-1212.48 311.175,-1285.48 311.175,-1285.48 311.175,-1291.48 305.175,-1297.48 299.175,-1297.48 299.175,-1297.48 217.175,-1297.48 217.175,-1297.48 211.175,-1297.48 205.175,-1291.48 205.175,-1285.48 205.175,-1285.48 205.175,-1212.48 205.175,-1212.48 205.175,-1206.48 211.175,-1200.48 217.175,-1200.48"/>
</g>
<!-- struct1 -->
<g id="node30" class="node"><title>struct1</title>
<path fill="#c1cdcd" stroke="none" d="M1264,-215.072C1264,-215.072 1400,-215.072 1400,-215.072 1406,-215.072 1412,-221.072 1412,-227.072 1412,-227.072 1412,-2031.07 1412,-2031.07 1412,-2037.07 1406,-2043.07 1400,-2043.07 1400,-2043.07 1264,-2043.07 1264,-2043.07 1258,-2043.07 1252,-2037.07 1252,-2031.07 1252,-2031.07 1252,-227.072 1252,-227.072 1252,-221.072 1258,-215.072 1264,-215.072"/>
<polygon fill="none" stroke="#c1cdcd" stroke-width="2" points="1256,-1929.07 1256,-2039.07 1408,-2039.07 1408,-1929.07 1256,-1929.07"/>
<polygon fill="white" stroke="none" stroke-width="2" points="1259,-1932.07 1259,-2036.07 1405,-2036.07 1405,-1932.07 1259,-1932.07"/>
<image xlink:href="logos/instinctools.png" width="136px" height="27.0057px" preserveAspectRatio="xMinYMin meet" x="1264" y="-2011.57"/>
<g id="a_node30_0"><a xlink:href="https://www.instinctools.by/" xlink:title="&lt;TABLE&gt;">
<polygon fill="none" stroke="#c1cdcd" points="1262,-1935.07 1262,-1961.07 1402,-1961.07 1402,-1935.07 1262,-1935.07"/>
<text text-anchor="start" x="1287.5" y="-1944.67" font-family="Times New Roman,serif" font-size="14.00"> </text>
<text text-anchor="start" x="1291.5" y="-1944.67" font-family="Times New Roman,serif" font-size="18.00">Instinctools</text>
</a>
</g>
<polygon fill="none" stroke="#c1cdcd" points="1259,-1932.07 1259,-2036.07 1405,-2036.07 1405,-1932.07 1259,-1932.07"/>
<polygon fill="none" stroke="#c1cdcd" stroke-width="2" points="1256,-1815.07 1256,-1925.07 1408,-1925.07 1408,-1815.07 1256,-1815.07"/>
<polygon fill="white" stroke="none" stroke-width="2" points="1259,-1818.07 1259,-1922.07 1405,-1922.07 1405,-1818.07 1259,-1818.07"/>
<image xlink:href="logos/epam.png" width="136px" height="53.2343px" preserveAspectRatio="xMinYMin meet" x="1264" y="-1910.69"/>
<g id="a_node30_1"><a xlink:href="https://www.epam.com" xlink:title="&lt;TABLE&gt;">
<polygon fill="none" stroke="#c1cdcd" points="1262,-1821.07 1262,-1847.07 1402,-1847.07 1402,-1821.07 1262,-1821.07"/>
<text text-anchor="start" x="1276" y="-1830.67" font-family="Times New Roman,serif" font-size="14.00"> </text>
<text text-anchor="start" x="1280" y="-1830.67" font-family="Times New Roman,serif" font-size="18.00">Epam Systems</text>
</a>
</g>
<polygon fill="none" stroke="#c1cdcd" points="1259,-1818.07 1259,-1922.07 1405,-1922.07 1405,-1818.07 1259,-1818.07"/>
<polygon fill="none" stroke="#c1cdcd" stroke-width="2" points="1256,-1701.07 1256,-1811.07 1408,-1811.07 1408,-1701.07 1256,-1701.07"/>
<polygon fill="white" stroke="none" stroke-width="2" points="1259,-1704.07 1259,-1808.07 1405,-1808.07 1405,-1704.07 1259,-1704.07"/>
<image xlink:href="logos/exposit.png" width="136px" height="38.665px" preserveAspectRatio="xMinYMin meet" x="1264" y="-1789.4"/>
<g id="a_node30_2"><a xlink:href="https://www.exposit.com" xlink:title="&lt;TABLE&gt;">
<polygon fill="none" stroke="#c1cdcd" points="1262,-1707.07 1262,-1733.07 1402,-1733.07 1402,-1707.07 1262,-1707.07"/>
<text text-anchor="start" x="1302" y="-1716.67" font-family="Times New Roman,serif" font-size="14.00"> </text>
<text text-anchor="start" x="1306" y="-1716.67" font-family="Times New Roman,serif" font-size="18.00">Exposit</text>
</a>
</g>
<polygon fill="none" stroke="#c1cdcd" points="1259,-1704.07 1259,-1808.07 1405,-1808.07 1405,-1704.07 1259,-1704.07"/>
<polygon fill="none" stroke="#c1cdcd" stroke-width="2" points="1256,-1587.07 1256,-1697.07 1408,-1697.07 1408,-1587.07 1256,-1587.07"/>
<polygon fill="white" stroke="none" stroke-width="2" points="1259,-1590.07 1259,-1694.07 1405,-1694.07 1405,-1590.07 1259,-1590.07"/>
<image xlink:href="logos/exadel.png" width="136px" height="33.4171px" preserveAspectRatio="xMinYMin meet" x="1264" y="-1672.78"/>
<g id="a_node30_3"><a xlink:href="https://www.exadel.com" xlink:title="&lt;TABLE&gt;">
<polygon fill="none" stroke="#c1cdcd" points="1262,-1593.07 1262,-1619.07 1402,-1619.07 1402,-1593.07 1262,-1593.07"/>
<text text-anchor="start" x="1304" y="-1602.67" font-family="Times New Roman,serif" font-size="14.00"> </text>
<text text-anchor="start" x="1308" y="-1602.67" font-family="Times New Roman,serif" font-size="18.00">Exadel</text>
</a>
</g>
<polygon fill="none" stroke="#c1cdcd" points="1259,-1590.07 1259,-1694.07 1405,-1694.07 1405,-1590.07 1259,-1590.07"/>
<polygon fill="none" stroke="#c1cdcd" stroke-width="2" points="1256,-1473.07 1256,-1583.07 1408,-1583.07 1408,-1473.07 1256,-1473.07"/>
<polygon fill="white" stroke="none" stroke-width="2" points="1259,-1476.07 1259,-1580.07 1405,-1580.07 1405,-1476.07 1259,-1476.07"/>
<image xlink:href="logos/softservise.png" width="136px" height="22.1486px" preserveAspectRatio="xMinYMin meet" x="1264" y="-1553.15"/>
<g id="a_node30_4"><a xlink:href="https://www.softservise.by" xlink:title="&lt;TABLE&gt;">
<polygon fill="none" stroke="#c1cdcd" points="1262,-1479.07 1262,-1505.07 1402,-1505.07 1402,-1479.07 1262,-1479.07"/>
<text text-anchor="start" x="1289.5" y="-1488.67" font-family="Times New Roman,serif" font-size="14.00"> </text>
<text text-anchor="start" x="1293.5" y="-1488.67" font-family="Times New Roman,serif" font-size="18.00">Softservise</text>
</a>
</g>
<polygon fill="none" stroke="#c1cdcd" points="1259,-1476.07 1259,-1580.07 1405,-1580.07 1405,-1476.07 1259,-1476.07"/>
<polygon fill="none" stroke="#c1cdcd" stroke-width="2" points="1256,-1359.07 1256,-1469.07 1408,-1469.07 1408,-1359.07 1256,-1359.07"/>
<polygon fill="white" stroke="none" stroke-width="2" points="1259,-1362.07 1259,-1466.07 1405,-1466.07 1405,-1362.07 1259,-1362.07"/>
<image xlink:href="logos/ITechArt.png" width="136px" height="24.6538px" preserveAspectRatio="xMinYMin meet" x="1264" y="-1440.4"/>
<g id="a_node30_5"><a xlink:href="https://www.ITechArt.com" xlink:title="&lt;TABLE&gt;">
<polygon fill="none" stroke="#c1cdcd" points="1262,-1365.07 1262,-1391.07 1402,-1391.07 1402,-1365.07 1262,-1365.07"/>
<text text-anchor="start" x="1296.5" y="-1374.67" font-family="Times New Roman,serif" font-size="14.00"> </text>
<text text-anchor="start" x="1300.5" y="-1374.67" font-family="Times New Roman,serif" font-size="18.00">ITechArt</text>
</a>
</g>
<polygon fill="none" stroke="#c1cdcd" points="1259,-1362.07 1259,-1466.07 1405,-1466.07 1405,-1362.07 1259,-1362.07"/>
<polygon fill="none" stroke="#c1cdcd" stroke-width="2" points="1256,-1245.07 1256,-1355.07 1408,-1355.07 1408,-1245.07 1256,-1245.07"/>
<polygon fill="white" stroke="none" stroke-width="2" points="1259,-1248.07 1259,-1352.07 1405,-1352.07 1405,-1248.07 1259,-1248.07"/>
<image xlink:href="logos/senla.jpg" width="136px" height="28.0553px" preserveAspectRatio="xMinYMin meet" x="1264" y="-1328.1"/>
<g id="a_node30_6"><a xlink:href="https://www.senlainc.com" xlink:title="&lt;TABLE&gt;">
<polygon fill="none" stroke="#c1cdcd" points="1262,-1251.07 1262,-1277.07 1402,-1277.07 1402,-1251.07 1262,-1251.07"/>
<text text-anchor="start" x="1309.5" y="-1260.67" font-family="Times New Roman,serif" font-size="14.00"> </text>
<text text-anchor="start" x="1313.5" y="-1260.67" font-family="Times New Roman,serif" font-size="18.00">Senla</text>
</a>
</g>
<polygon fill="none" stroke="#c1cdcd" points="1259,-1248.07 1259,-1352.07 1405,-1352.07 1405,-1248.07 1259,-1248.07"/>
<polygon fill="none" stroke="#c1cdcd" stroke-width="2" points="1256,-1131.07 1256,-1241.07 1408,-1241.07 1408,-1131.07 1256,-1131.07"/>
<polygon fill="white" stroke="none" stroke-width="2" points="1259,-1134.07 1259,-1238.07 1405,-1238.07 1405,-1134.07 1259,-1134.07"/>
<image xlink:href="logos/godel.png" width="136px" height="30.1578px" preserveAspectRatio="xMinYMin meet" x="1264" y="-1215.15"/>
<g id="a_node30_7"><a xlink:href="https://www.godeltech.com" xlink:title="&lt;TABLE&gt;">
<polygon fill="none" stroke="#c1cdcd" points="1262,-1137.07 1262,-1163.07 1402,-1163.07 1402,-1137.07 1262,-1137.07"/>
<text text-anchor="start" x="1307.5" y="-1146.67" font-family="Times New Roman,serif" font-size="14.00"> </text>
<text text-anchor="start" x="1311.5" y="-1146.67" font-family="Times New Roman,serif" font-size="18.00">Godel</text>
</a>
</g>
<polygon fill="none" stroke="#c1cdcd" points="1259,-1134.07 1259,-1238.07 1405,-1238.07 1405,-1134.07 1259,-1134.07"/>
<polygon fill="none" stroke="#c1cdcd" stroke-width="2" points="1256,-1017.07 1256,-1127.07 1408,-1127.07 1408,-1017.07 1256,-1017.07"/>
<polygon fill="white" stroke="none" stroke-width="2" points="1259,-1020.07 1259,-1124.07 1405,-1124.07 1405,-1020.07 1259,-1020.07"/>
<image xlink:href="logos/intexsoft.png" width="136px" height="29.8378px" preserveAspectRatio="xMinYMin meet" x="1264" y="-1100.99"/>
<g id="a_node30_8"><a xlink:href="https://www.intexsoft.com" xlink:title="&lt;TABLE&gt;">
<polygon fill="none" stroke="#c1cdcd" points="1262,-1023.07 1262,-1049.07 1402,-1049.07 1402,-1023.07 1262,-1023.07"/>
<text text-anchor="start" x="1297.5" y="-1032.67" font-family="Times New Roman,serif" font-size="14.00"> </text>
<text text-anchor="start" x="1301.5" y="-1032.67" font-family="Times New Roman,serif" font-size="18.00">Intexsoft</text>
</a>
</g>
<polygon fill="none" stroke="#c1cdcd" points="1259,-1020.07 1259,-1124.07 1405,-1124.07 1405,-1020.07 1259,-1020.07"/>
<polygon fill="none" stroke="#c1cdcd" stroke-width="2" points="1256,-903.072 1256,-1013.07 1408,-1013.07 1408,-903.072 1256,-903.072"/>
<polygon fill="white" stroke="none" stroke-width="2" points="1259,-906.072 1259,-1010.07 1405,-1010.07 1405,-906.072 1259,-906.072"/>
<image xlink:href="logos/academic.png" width="136px" height="30.1143px" preserveAspectRatio="xMinYMin meet" x="1264" y="-987.129"/>
<g id="a_node30_9"><a xlink:href="https://www.eservice.by" xlink:title="&lt;TABLE&gt;">
<polygon fill="none" stroke="#c1cdcd" points="1262,-909.072 1262,-935.072 1402,-935.072 1402,-909.072 1262,-909.072"/>
<text text-anchor="start" x="1286" y="-918.672" font-family="Times New Roman,serif" font-size="14.00"> </text>
<text text-anchor="start" x="1290" y="-918.672" font-family="Times New Roman,serif" font-size="18.00">Academ&amp;C</text>
</a>
</g>
<polygon fill="none" stroke="#c1cdcd" points="1259,-906.072 1259,-1010.07 1405,-1010.07 1405,-906.072 1259,-906.072"/>
<polygon fill="none" stroke="#c1cdcd" stroke-width="2" points="1256,-789.072 1256,-899.072 1408,-899.072 1408,-789.072 1256,-789.072"/>
<polygon fill="white" stroke="none" stroke-width="2" points="1259,-792.072 1259,-896.072 1405,-896.072 1405,-792.072 1259,-792.072"/>
<image xlink:href="logos/specific.jpg" width="136px" height="36.2667px" preserveAspectRatio="xMinYMin meet" x="1264" y="-876.205"/>
<g id="a_node30_10"><a xlink:href="https://www.specific-group.by" xlink:title="&lt;TABLE&gt;">
<polygon fill="none" stroke="#c1cdcd" points="1262,-795.072 1262,-821.072 1402,-821.072 1402,-795.072 1262,-795.072"/>
<text text-anchor="start" x="1274" y="-804.672" font-family="Times New Roman,serif" font-size="14.00"> </text>
<text text-anchor="start" x="1278" y="-804.672" font-family="Times New Roman,serif" font-size="18.00">Specific&#45;Group</text>
</a>
</g>
<polygon fill="none" stroke="#c1cdcd" points="1259,-792.072 1259,-896.072 1405,-896.072 1405,-792.072 1259,-792.072"/>
<polygon fill="none" stroke="#c1cdcd" stroke-width="2" points="1256,-675.072 1256,-785.072 1408,-785.072 1408,-675.072 1256,-675.072"/>
<polygon fill="white" stroke="none" stroke-width="2" points="1259,-678.072 1259,-782.072 1405,-782.072 1405,-678.072 1259,-678.072"/>
<image xlink:href="logos/tispr.png" width="136px" height="45.4875px" preserveAspectRatio="xMinYMin meet" x="1264" y="-766.816"/>
<g id="a_node30_11"><a xlink:href="https://www.tispr.com" xlink:title="&lt;TABLE&gt;">
<polygon fill="none" stroke="#c1cdcd" points="1262,-681.072 1262,-707.072 1402,-707.072 1402,-681.072 1262,-681.072"/>
<text text-anchor="start" x="1310.5" y="-690.672" font-family="Times New Roman,serif" font-size="14.00"> </text>
<text text-anchor="start" x="1314.5" y="-690.672" font-family="Times New Roman,serif" font-size="18.00">Tispr</text>
</a>
</g>
<polygon fill="none" stroke="#c1cdcd" points="1259,-678.072 1259,-782.072 1405,-782.072 1405,-678.072 1259,-678.072"/>
<polygon fill="none" stroke="#c1cdcd" stroke-width="2" points="1256,-561.072 1256,-671.072 1408,-671.072 1408,-561.072 1256,-561.072"/>
<polygon fill="white" stroke="none" stroke-width="2" points="1259,-564.072 1259,-668.072 1405,-668.072 1405,-564.072 1259,-564.072"/>
<image xlink:href="logos/itransition.png" width="136px" height="16.32px" preserveAspectRatio="xMinYMin meet" x="1264" y="-638.232"/>
<g id="a_node30_12"><a xlink:href="https://www.itransition.com" xlink:title="&lt;TABLE&gt;">
<polygon fill="none" stroke="#c1cdcd" points="1262,-567.072 1262,-593.072 1402,-593.072 1402,-567.072 1262,-567.072"/>
<text text-anchor="start" x="1289.5" y="-576.672" font-family="Times New Roman,serif" font-size="14.00"> </text>
<text text-anchor="start" x="1293.5" y="-576.672" font-family="Times New Roman,serif" font-size="18.00">iTransition</text>
</a>
</g>
<polygon fill="none" stroke="#c1cdcd" points="1259,-564.072 1259,-668.072 1405,-668.072 1405,-564.072 1259,-564.072"/>
<polygon fill="none" stroke="#c1cdcd" stroke-width="2" points="1256,-447.072 1256,-557.072 1408,-557.072 1408,-447.072 1256,-447.072"/>
<polygon fill="white" stroke="none" stroke-width="2" points="1259,-450.072 1259,-554.072 1405,-554.072 1405,-450.072 1259,-450.072"/>
<image xlink:href="logos/bytech.jpg" width="136px" height="39.8891px" preserveAspectRatio="xMinYMin meet" x="1264" y="-536.017"/>
<g id="a_node30_13"><a xlink:href="https://www.itransition.com" xlink:title="&lt;TABLE&gt;">
<polygon fill="none" stroke="#c1cdcd" points="1262,-453.072 1262,-479.072 1402,-479.072 1402,-453.072 1262,-453.072"/>
<text text-anchor="start" x="1270" y="-462.672" font-family="Times New Roman,serif" font-size="14.00"> </text>
<text text-anchor="start" x="1274" y="-462.672" font-family="Times New Roman,serif" font-size="18.00">ByTechSolution</text>
</a>
</g>
<polygon fill="none" stroke="#c1cdcd" points="1259,-450.072 1259,-554.072 1405,-554.072 1405,-450.072 1259,-450.072"/>
<polygon fill="none" stroke="#c1cdcd" stroke-width="2" points="1256,-333.072 1256,-443.072 1408,-443.072 1408,-333.072 1256,-333.072"/>
<polygon fill="white" stroke="none" stroke-width="2" points="1259,-336.072 1259,-440.072 1405,-440.072 1405,-336.072 1259,-336.072"/>
<image xlink:href="logos/cogniteq.png" width="136px" height="26.4828px" preserveAspectRatio="xMinYMin meet" x="1264" y="-415.313"/>
<g id="a_node30_14"><a xlink:href="https://www.cogniteq.com" xlink:title="&lt;TABLE&gt;">
<polygon fill="none" stroke="#c1cdcd" points="1262,-339.072 1262,-365.072 1402,-365.072 1402,-339.072 1262,-339.072"/>
<text text-anchor="start" x="1296.5" y="-348.672" font-family="Times New Roman,serif" font-size="14.00"> </text>
<text text-anchor="start" x="1300.5" y="-348.672" font-family="Times New Roman,serif" font-size="18.00">Cogniteq</text>
</a>
</g>
<polygon fill="none" stroke="#c1cdcd" points="1259,-336.072 1259,-440.072 1405,-440.072 1405,-336.072 1259,-336.072"/>
<polygon fill="none" stroke="#c1cdcd" stroke-width="2" points="1256,-219.072 1256,-329.072 1408,-329.072 1408,-219.072 1256,-219.072"/>
<polygon fill="white" stroke="none" stroke-width="2" points="1259,-222.072 1259,-326.072 1405,-326.072 1405,-222.072 1259,-222.072"/>
<image xlink:href="logos/yellow_sq.png" width="136px" height="28.5981px" preserveAspectRatio="xMinYMin meet" x="1264" y="-302.371"/>
<g id="a_node30_15"><a xlink:href="https://yellowsquare.by/" xlink:title="&lt;TABLE&gt;">
<polygon fill="none" stroke="#c1cdcd" points="1262,-225.072 1262,-251.072 1402,-251.072 1402,-225.072 1262,-225.072"/>
<text text-anchor="start" x="1275.5" y="-234.672" font-family="Times New Roman,serif" font-size="14.00"> </text>
<text text-anchor="start" x="1279.5" y="-234.672" font-family="Times New Roman,serif" font-size="18.00">Yellow Square</text>
</a>
</g>
<polygon fill="none" stroke="#c1cdcd" points="1259,-222.072 1259,-326.072 1405,-326.072 1405,-222.072 1259,-222.072"/>
<path fill="none" stroke="#c1cdcd" stroke-width="2" d="M1264,-215.072C1264,-215.072 1400,-215.072 1400,-215.072 1406,-215.072 1412,-221.072 1412,-227.072 1412,-227.072 1412,-2031.07 1412,-2031.07 1412,-2037.07 1406,-2043.07 1400,-2043.07 1400,-2043.07 1264,-2043.07 1264,-2043.07 1258,-2043.07 1252,-2037.07 1252,-2031.07 1252,-2031.07 1252,-227.072 1252,-227.072 1252,-221.072 1258,-215.072 1264,-215.072"/>
</g>
<!-- struct1&#45;&gt;. -->
<g id="edge69" class="edge"><title>struct1:godel&#45;&gt;.</title>
<path fill="none" stroke="white" stroke-width="3" d="M1262,-1150.07C1262,-1150.07 338.047,-1134.13 100.266,-1130.03"/>
<polygon fill="white" stroke="white" stroke-width="3" points="100.18,-1126.52 90.1212,-1129.85 100.059,-1133.52 100.18,-1126.52"/>
</g>
<!-- struct1&#45;&gt;Java -->
<g id="edge1" class="edge"><title>struct1:epam&#45;&gt;Java</title>
<path fill="none" stroke="#7ec0ee" stroke-width="3" d="M1262,-1834.07C1262,-1834.07 520.342,-1224.6 312.015,-1053.4"/>
<polygon fill="#7ec0ee" stroke="#7ec0ee" stroke-width="3" points="314.194,-1050.66 304.246,-1047.02 309.75,-1056.07 314.194,-1050.66"/>
</g>
<!-- struct1&#45;&gt;Java -->
<g id="edge10" class="edge"><title>struct1:exadel&#45;&gt;Java</title>
<path fill="none" stroke="blue" stroke-width="3" d="M1262,-1606.07C1262,-1606.07 522.542,-1166.36 312.946,-1041.73"/>
<polygon fill="blue" stroke="blue" stroke-width="3" points="314.63,-1038.66 304.246,-1036.56 311.052,-1044.67 314.63,-1038.66"/>
</g>
<!-- struct1&#45;&gt;Java -->
<g id="edge13" class="edge"><title>struct1:exposit&#45;&gt;Java</title>
<path fill="none" stroke="orange" stroke-width="3" d="M1262,-1720.07C1262,-1720.07 521.809,-1195.87 312.635,-1047.73"/>
<polygon fill="orange" stroke="orange" stroke-width="3" points="314.43,-1044.71 304.246,-1041.79 310.384,-1050.42 314.43,-1044.71"/>
</g>
<!-- struct1&#45;&gt;Java -->
<g id="edge23" class="edge"><title>struct1:instinctools&#45;&gt;Java</title>
<path fill="none" stroke="cornflowerblue" stroke-width="3" d="M1262,-1948.07C1262,-1948.07 519.609,-1253.69 311.706,-1059.23"/>
<polygon fill="cornflowerblue" stroke="cornflowerblue" stroke-width="3" points="313.94,-1056.53 304.246,-1052.25 309.158,-1061.64 313.94,-1056.53"/>
</g>
<!-- struct1&#45;&gt;Java -->
<g id="edge31" class="edge"><title>struct1:intexsoft&#45;&gt;Java</title>
<path fill="none" stroke="darkslategray" stroke-width="3" d="M1262,-1036.07C1262,-1036.07 526.2,-1016.34 314.513,-1010.67"/>
<polygon fill="darkslategray" stroke="darkslategray" stroke-width="3" points="314.336,-1007.16 304.246,-1010.39 314.149,-1014.16 314.336,-1007.16"/>
</g>
<!-- struct1&#45;&gt;Java -->
<g id="edge39" class="edge"><title>struct1:ITechArt&#45;&gt;Java</title>
<path fill="none" stroke="red" stroke-width="3" d="M1262,-1378.07C1262,-1378.07 524.737,-1107.12 313.884,-1029.63"/>
<polygon fill="red" stroke="red" stroke-width="3" points="314.84,-1026.26 304.246,-1026.09 312.425,-1032.83 314.84,-1026.26"/>
</g>
<!-- struct1&#45;&gt;.Net -->
<g id="edge2" class="edge"><title>struct1:epam&#45;&gt;.Net</title>
<path fill="none" stroke="#7ec0ee" stroke-width="3" d="M1262,-1834.07C1262,-1834.07 562.322,-1063.14 361.574,-841.954"/>
<polygon fill="#7ec0ee" stroke="#7ec0ee" stroke-width="3" points="363.957,-839.373 354.645,-834.32 358.774,-844.077 363.957,-839.373"/>
</g>
<!-- struct1&#45;&gt;.Net -->
<g id="edge11" class="edge"><title>struct1:exadel&#45;&gt;.Net</title>
<path fill="none" stroke="blue" stroke-width="3" d="M1262,-1606.07C1262,-1606.07 564.395,-1004.21 362.47,-829.997"/>
<polygon fill="blue" stroke="blue" stroke-width="3" points="364.503,-827.128 354.645,-823.246 359.93,-832.428 364.503,-827.128"/>
</g>
<!-- struct1&#45;&gt;.Net -->
<g id="edge40" class="edge"><title>struct1:ITechArt&#45;&gt;.Net</title>
<path fill="none" stroke="red" stroke-width="3" d="M1262,-1378.07C1262,-1378.07 566.464,-944.279 363.372,-817.615"/>
<polygon fill="red" stroke="red" stroke-width="3" points="364.982,-814.494 354.645,-812.172 361.278,-820.434 364.982,-814.494"/>
</g>
<!-- struct1&#45;&gt;.Net -->
<g id="edge50" class="edge"><title>struct1:itransition&#45;&gt;.Net</title>
<path fill="none" stroke="seagreen" stroke-width="3" d="M1262,-580.072C1262,-580.072 569.219,-727.691 364.586,-771.295"/>
<polygon fill="seagreen" stroke="seagreen" stroke-width="3" points="363.696,-767.906 354.645,-773.413 365.155,-774.752 363.696,-767.906"/>
</g>
<!-- struct1&#45;&gt;.Net -->
<g id="edge65" class="edge"><title>struct1:godel&#45;&gt;.Net</title>
<path fill="none" stroke="red" stroke-width="3" d="M1262,-1150.07C1262,-1150.07 568.531,-883.36 364.281,-804.804"/>
<polygon fill="red" stroke="red" stroke-width="3" points="365.235,-801.421 354.645,-801.098 362.722,-807.955 365.235,-801.421"/>
</g>
<!-- struct1&#45;&gt;React.js -->
<g id="edge66" class="edge"><title>struct1:godel&#45;&gt;React.js</title>
<path fill="none" stroke="red" stroke-width="3" d="M1262,-1150.07C1262,-1150.07 673.602,-745.533 475.101,-609.058"/>
<polygon fill="red" stroke="red" stroke-width="3" points="477.015,-606.127 466.792,-603.345 473.049,-611.895 477.015,-606.127"/>
</g>
<!-- struct1&#45;&gt;DevOps -->
<g id="edge3" class="edge"><title>struct1:epam&#45;&gt;DevOps</title>
<path fill="none" stroke="#7ec0ee" stroke-width="3" d="M1262,-1834.07C1262,-1834.07 736.979,-696.452 607.572,-416.052"/>
<polygon fill="#7ec0ee" stroke="#7ec0ee" stroke-width="3" points="610.686,-414.446 603.318,-406.833 604.33,-417.379 610.686,-414.446"/>
</g>
<!-- struct1&#45;&gt;DevOps -->
<g id="edge41" class="edge"><title>struct1:ITechArt&#45;&gt;DevOps</title>
<path fill="none" stroke="red" stroke-width="3" d="M1262,-1378.07C1262,-1378.07 766.891,-635.826 619.763,-415.258"/>
<polygon fill="red" stroke="red" stroke-width="3" points="622.515,-413.077 614.055,-406.7 616.692,-416.961 622.515,-413.077"/>
</g>
<!-- struct1&#45;&gt;DevOps -->
<g id="edge60" class="edge"><title>struct1:specific&#45;&gt;DevOps</title>
<path fill="none" stroke="darkslateblue" stroke-width="3" d="M1262,-808.072C1262,-808.072 850.553,-534.628 666.354,-412.211"/>
<polygon fill="darkslateblue" stroke="darkslateblue" stroke-width="3" points="668.29,-409.295 658.024,-406.675 664.416,-415.125 668.29,-409.295"/>
</g>
<!-- struct1&#45;&gt;DevOps -->
<g id="edge62" class="edge"><title>struct1:tispr&#45;&gt;DevOps</title>
<path fill="none" stroke="slateblue" stroke-width="3" d="M1262,-694.072C1262,-694.072 854.821,-491.427 669.246,-399.071"/>
<polygon fill="slateblue" stroke="slateblue" stroke-width="3" points="670.552,-395.811 660.04,-394.489 667.433,-402.078 670.552,-395.811"/>
</g>
<!-- struct1&#45;&gt;Node.js -->
<g id="edge14" class="edge"><title>struct1:exposit&#45;&gt;Node.js</title>
<path fill="none" stroke="orange" stroke-width="3" d="M1262,-1720.07C1262,-1720.07 900.246,-541.884 812.164,-255.013"/>
<polygon fill="orange" stroke="orange" stroke-width="3" points="815.428,-253.72 809.147,-245.188 808.737,-255.775 815.428,-253.72"/>
</g>
<!-- struct1&#45;&gt;Node.js -->
<g id="edge24" class="edge"><title>struct1:instinctools&#45;&gt;Node.js</title>
<path fill="none" stroke="cornflowerblue" stroke-width="3" d="M1262,-1948.07C1262,-1948.07 893.129,-567.382 809.657,-254.944"/>
<polygon fill="cornflowerblue" stroke="cornflowerblue" stroke-width="3" points="813.002,-253.904 807.039,-245.147 806.239,-255.711 813.002,-253.904"/>
</g>
<!-- struct1&#45;&gt;Node.js -->
<g id="edge32" class="edge"><title>struct1:intexsoft&#45;&gt;Node.js</title>
<path fill="none" stroke="darkslategray" stroke-width="3" d="M1262,-1036.07C1262,-1036.07 935.464,-448.817 827.323,-254.332"/>
<polygon fill="darkslategray" stroke="darkslategray" stroke-width="3" points="830.26,-252.41 822.341,-245.372 824.142,-255.812 830.26,-252.41"/>
</g>
<!-- struct1&#45;&gt;Node.js -->
<g id="edge42" class="edge"><title>struct1:ITechArt&#45;&gt;Node.js</title>
<path fill="none" stroke="red" stroke-width="3" d="M1262,-1378.07C1262,-1378.07 914.278,-499.151 817.65,-254.908"/>
<polygon fill="red" stroke="red" stroke-width="3" points="820.847,-253.473 813.913,-245.462 814.337,-256.049 820.847,-253.473"/>
</g>
<!-- struct1&#45;&gt;PHP -->
<g id="edge15" class="edge"><title>struct1:exposit&#45;&gt;PHP</title>
<path fill="none" stroke="orange" stroke-width="3" d="M1262,-1720.07C1262,-1720.07 1068.34,-458.318 1022.5,-159.625"/>
<polygon fill="orange" stroke="orange" stroke-width="3" points="1025.91,-158.762 1020.93,-149.409 1018.99,-159.824 1025.91,-158.762"/>
</g>
<!-- struct1&#45;&gt;PHP -->
<g id="edge33" class="edge"><title>struct1:intexsoft&#45;&gt;PHP</title>
<path fill="none" stroke="darkslategray" stroke-width="3" d="M1262,-1036.07C1262,-1036.07 1085.09,-369.128 1029.42,-159.234"/>
<polygon fill="darkslategray" stroke="darkslategray" stroke-width="3" points="1032.73,-158.062 1026.78,-149.294 1025.96,-159.857 1032.73,-158.062"/>
</g>
<!-- struct1&#45;&gt;PHP -->
<g id="edge43" class="edge"><title>struct1:ITechArt&#45;&gt;PHP</title>
<path fill="none" stroke="red" stroke-width="3" d="M1262,-1378.07C1262,-1378.07 1075,-416.371 1025.01,-159.319"/>
<polygon fill="red" stroke="red" stroke-width="3" points="1028.43,-158.546 1023.08,-149.398 1021.56,-159.882 1028.43,-158.546"/>
</g>
<!-- struct1&#45;&gt;PHP -->
<g id="edge51" class="edge"><title>struct1:itransition&#45;&gt;PHP</title>
<path fill="none" stroke="seagreen" stroke-width="3" d="M1262,-580.072C1262,-580.072 1111.86,-288.828 1044.68,-158.519"/>
<polygon fill="seagreen" stroke="seagreen" stroke-width="3" points="1047.68,-156.706 1039.99,-149.422 1041.46,-159.914 1047.68,-156.706"/>
</g>
<!-- struct1&#45;&gt;C# -->
<g id="edge52" class="edge"><title>struct1:itransition&#45;&gt;C#</title>
<path fill="none" stroke="seagreen" stroke-width="3" d="M1262,-580.072C1262,-580.072 1248.41,-254.934 1242.57,-115.152"/>
<polygon fill="seagreen" stroke="seagreen" stroke-width="3" points="1246.06,-114.859 1242.15,-105.014 1239.07,-115.152 1246.06,-114.859"/>
</g>
<!-- struct1&#45;&gt;Magento -->
<g id="edge53" class="edge"><title>struct1:itransition&#45;&gt;Magento</title>
<path fill="none" stroke="seagreen" stroke-width="3" d="M1402,-580.072C1402,-580.072 1444.48,-259.63 1462.91,-120.645"/>
<polygon fill="seagreen" stroke="seagreen" stroke-width="3" points="1466.4,-120.933 1464.25,-110.56 1459.46,-120.013 1466.4,-120.933"/>
</g>
<!-- struct1&#45;&gt;Full Stack -->
<g id="edge54" class="edge"><title>struct1:itransition&#45;&gt;Full Stack</title>
<path fill="none" stroke="seagreen" stroke-width="3" d="M1402,-580.072C1402,-580.072 1577.91,-300.088 1657.69,-173.115"/>
<polygon fill="seagreen" stroke="seagreen" stroke-width="3" points="1660.67,-174.94 1663.03,-164.61 1654.75,-171.215 1660.67,-174.94"/>
</g>
<!-- struct1&#45;&gt;IT sales manager -->
<g id="edge34" class="edge"><title>struct1:intexsoft&#45;&gt;IT sales manager</title>
<path fill="none" stroke="darkslategray" stroke-width="3" d="M1402,-1036.07C1402,-1036.07 1743.78,-488.794 1868.25,-289.495"/>
<polygon fill="darkslategray" stroke="darkslategray" stroke-width="3" points="1871.33,-291.176 1873.66,-280.841 1865.39,-287.468 1871.33,-291.176"/>
</g>
<!-- struct1&#45;&gt;QA -->
<g id="edge4" class="edge"><title>struct1:epam&#45;&gt;QA</title>
<path fill="none" stroke="#7ec0ee" stroke-width="3" d="M1402,-1834.07C1402,-1834.07 1938.44,-709.6 2071.18,-431.355"/>
<polygon fill="#7ec0ee" stroke="#7ec0ee" stroke-width="3" points="2074.39,-432.737 2075.54,-422.204 2068.08,-429.723 2074.39,-432.737"/>
</g>
<!-- struct1&#45;&gt;QA -->
<g id="edge16" class="edge"><title>struct1:exposit&#45;&gt;QA</title>
<path fill="none" stroke="orange" stroke-width="3" d="M1402,-1720.07C1402,-1720.07 1932.02,-695.543 2068.74,-431.255"/>
<polygon fill="orange" stroke="orange" stroke-width="3" points="2071.95,-432.667 2073.44,-422.177 2065.74,-429.45 2071.95,-432.667"/>
</g>
<!-- struct1&#45;&gt;QA -->
<g id="edge25" class="edge"><title>struct1:instinctools&#45;&gt;QA</title>
<path fill="none" stroke="cornflowerblue" stroke-width="3" d="M1402,-1948.07C1402,-1948.07 1944.31,-722.804 2073.31,-431.332"/>
<polygon fill="cornflowerblue" stroke="cornflowerblue" stroke-width="3" points="2076.52,-432.731 2077.37,-422.17 2070.12,-429.898 2076.52,-432.731"/>
</g>
<!-- struct1&#45;&gt;QA -->
<g id="edge35" class="edge"><title>struct1:intexsoft&#45;&gt;QA</title>
<path fill="none" stroke="darkslategray" stroke-width="3" d="M1402,-1036.07C1402,-1036.07 1883.37,-576.881 2046.96,-420.835"/>
<polygon fill="darkslategray" stroke="darkslategray" stroke-width="3" points="2049.68,-423.071 2054.5,-413.636 2044.85,-418.006 2049.68,-423.071"/>
</g>
<!-- struct1&#45;&gt;QA -->
<g id="edge63" class="edge"><title>struct1:tispr&#45;&gt;QA</title>
<path fill="none" stroke="slateblue" stroke-width="3" d="M1402,-694.072C1402,-694.072 1879.56,-472.304 2044.99,-395.48"/>
<polygon fill="slateblue" stroke="slateblue" stroke-width="3" points="2046.91,-398.451 2054.5,-391.065 2043.96,-392.102 2046.91,-398.451"/>
</g>
<!-- struct1&#45;&gt;System Administrator -->
<g id="edge56" class="edge"><title>struct1:senla&#45;&gt;System Administrator</title>
<path fill="none" stroke="mediumblue" stroke-width="3" d="M1402,-1264.07C1402,-1264.07 1977.63,-797.27 2184.28,-629.692"/>
<polygon fill="mediumblue" stroke="mediumblue" stroke-width="3" points="2186.51,-632.395 2192.07,-623.378 2182.1,-626.958 2186.51,-632.395"/>
</g>
<!-- struct1&#45;&gt;Frontend -->
<g id="edge17" class="edge"><title>struct1:exposit&#45;&gt;Frontend</title>
<path fill="none" stroke="orange" stroke-width="3" d="M1402,-1720.07C1402,-1720.07 2106.45,-1046.98 2308.49,-853.944"/>
<polygon fill="orange" stroke="orange" stroke-width="3" points="2310.93,-856.449 2315.75,-847.01 2306.1,-851.387 2310.93,-856.449"/>
</g>
<!-- struct1&#45;&gt;Frontend -->
<g id="edge26" class="edge"><title>struct1:instinctools&#45;&gt;Frontend</title>
<path fill="none" stroke="cornflowerblue" stroke-width="3" d="M1402,-1948.07C1402,-1948.07 2113.42,-1099.37 2311.44,-863.141"/>
<polygon fill="cornflowerblue" stroke="cornflowerblue" stroke-width="3" points="2314.25,-865.243 2317.99,-855.331 2308.88,-860.746 2314.25,-865.243"/>
</g>
<!-- struct1&#45;&gt;Frontend -->
<g id="edge36" class="edge"><title>struct1:intexsoft&#45;&gt;Frontend</title>
<path fill="none" stroke="darkslategray" stroke-width="3" d="M1402,-1036.07C1402,-1036.07 2100.2,-866.4 2305.76,-816.445"/>
<polygon fill="darkslategray" stroke="darkslategray" stroke-width="3" points="2306.85,-819.781 2315.75,-814.019 2305.2,-812.979 2306.85,-819.781"/>
</g>
<!-- struct1&#45;&gt;Frontend -->
<g id="edge44" class="edge"><title>struct1:ITechArt&#45;&gt;Frontend</title>
<path fill="none" stroke="red" stroke-width="3" d="M1402,-1378.07C1402,-1378.07 2102.98,-958.016 2306.98,-835.767"/>
<polygon fill="red" stroke="red" stroke-width="3" points="2308.97,-838.657 2315.75,-830.514 2305.37,-832.652 2308.97,-838.657"/>
</g>
<!-- struct1&#45;&gt;Frontend -->
<g id="edge55" class="edge"><title>struct1:itransition&#45;&gt;Frontend</title>
<path fill="none" stroke="seagreen" stroke-width="3" d="M1402,-580.072C1402,-580.072 2100.2,-742.027 2305.76,-789.709"/>
<polygon fill="seagreen" stroke="seagreen" stroke-width="3" points="2305.21,-793.175 2315.75,-792.025 2306.8,-786.356 2305.21,-793.175"/>
</g>
<!-- struct1&#45;&gt;Frontend -->
<g id="edge61" class="edge"><title>struct1:specific&#45;&gt;Frontend</title>
<path fill="none" stroke="darkslateblue" stroke-width="3" d="M1402,-808.072C1402,-808.072 2099.51,-804.217 2305.46,-803.079"/>
<polygon fill="darkslateblue" stroke="darkslateblue" stroke-width="3" points="2305.77,-806.577 2315.75,-803.022 2305.73,-799.577 2305.77,-806.577"/>
</g>
<!-- struct1&#45;&gt;Frontend -->
<g id="edge64" class="edge"><title>struct1:tispr&#45;&gt;Frontend</title>
<path fill="none" stroke="slateblue" stroke-width="3" d="M1402,-694.072C1402,-694.072 2100.2,-773.12 2305.76,-796.393"/>
<polygon fill="slateblue" stroke="slateblue" stroke-width="3" points="2305.42,-799.876 2315.75,-797.524 2306.2,-792.921 2305.42,-799.876"/>
</g>
<!-- struct1&#45;&gt;Frontend -->
<g id="edge67" class="edge"><title>struct1:godel&#45;&gt;Frontend</title>
<path fill="none" stroke="red" stroke-width="3" d="M1402,-1150.07C1402,-1150.07 2100.89,-897.242 2306.07,-823.018"/>
<polygon fill="red" stroke="red" stroke-width="3" points="2307.53,-826.211 2315.75,-819.517 2305.15,-819.628 2307.53,-826.211"/>
</g>
<!-- struct1&#45;&gt;Ruby -->
<g id="edge45" class="edge"><title>struct1:ITechArt&#45;&gt;Ruby</title>
<path fill="none" stroke="red" stroke-width="3" d="M1402,-1378.07C1402,-1378.07 2140.79,-1122.1 2352.08,-1048.89"/>
<polygon fill="red" stroke="red" stroke-width="3" points="2353.44,-1052.13 2361.74,-1045.55 2351.15,-1045.52 2353.44,-1052.13"/>
</g>
<!-- struct1&#45;&gt;Python -->
<g id="edge12" class="edge"><title>struct1:exadel&#45;&gt;Python</title>
<path fill="none" stroke="blue" stroke-width="3" d="M1402,-1606.07C1402,-1606.07 2138.24,-1352.56 2348.8,-1280.06"/>
<polygon fill="blue" stroke="blue" stroke-width="3" points="2350.1,-1283.31 2358.42,-1276.74 2347.83,-1276.69 2350.1,-1283.31"/>
</g>
<!-- struct1&#45;&gt;Python -->
<g id="edge18" class="edge"><title>struct1:exposit&#45;&gt;Python</title>
<path fill="none" stroke="orange" stroke-width="3" d="M1402,-1720.07C1402,-1720.07 2138.97,-1382.5 2349.11,-1286.24"/>
<polygon fill="orange" stroke="orange" stroke-width="3" points="2350.79,-1289.32 2358.42,-1281.98 2347.87,-1282.96 2350.79,-1289.32"/>
</g>
<!-- struct1&#45;&gt;Python -->
<g id="edge27" class="edge"><title>struct1:instinctools&#45;&gt;Python</title>
<path fill="none" stroke="cornflowerblue" stroke-width="3" d="M1402,-1948.07C1402,-1948.07 2141.16,-1441.37 2350.04,-1298.18"/>
<polygon fill="cornflowerblue" stroke="cornflowerblue" stroke-width="3" points="2352.15,-1300.98 2358.42,-1292.44 2348.19,-1295.21 2352.15,-1300.98"/>
</g>
<!-- struct1&#45;&gt;Python -->
<g id="edge46" class="edge"><title>struct1:ITechArt&#45;&gt;Python</title>
<path fill="none" stroke="red" stroke-width="3" d="M1402,-1378.07C1402,-1378.07 2137.51,-1292.1 2348.48,-1267.44"/>
<polygon fill="red" stroke="red" stroke-width="3" points="2348.89,-1270.92 2358.42,-1266.28 2348.08,-1263.97 2348.89,-1270.92"/>
</g>
<!-- struct1&#45;&gt;HR -->
<g id="edge47" class="edge"><title>struct1:ITechArt&#45;&gt;HR</title>
<path fill="none" stroke="red" stroke-width="3" d="M1402,-1378.07C1402,-1378.07 2091.26,-1456.55 2295.44,-1479.79"/>
<polygon fill="red" stroke="red" stroke-width="3" points="2295.31,-1483.3 2305.64,-1480.96 2296.1,-1476.35 2295.31,-1483.3"/>
</g>
<!-- struct1&#45;&gt;iOS -->
<g id="edge5" class="edge"><title>struct1:epam&#45;&gt;iOS</title>
<path fill="none" stroke="#7ec0ee" stroke-width="3" d="M1402,-1834.07C1402,-1834.07 2006.83,-1735.25 2196.3,-1704.29"/>
<polygon fill="#7ec0ee" stroke="#7ec0ee" stroke-width="3" points="2197.03,-1707.72 2206.33,-1702.66 2195.9,-1700.81 2197.03,-1707.72"/>
</g>
<!-- struct1&#45;&gt;iOS -->
<g id="edge48" class="edge"><title>struct1:ITechArt&#45;&gt;iOS</title>
<path fill="none" stroke="red" stroke-width="3" d="M1402,-1378.07C1402,-1378.07 2008.04,-1604.04 2196.87,-1674.45"/>
<polygon fill="red" stroke="red" stroke-width="3" points="2195.74,-1677.76 2206.33,-1677.98 2198.19,-1671.2 2195.74,-1677.76"/>
</g>
<!-- struct1&#45;&gt;Data Scientist -->
<g id="edge19" class="edge"><title>struct1:exposit&#45;&gt;Data Scientist</title>
<path fill="none" stroke="orange" stroke-width="3" d="M1402,-1720.07C1402,-1720.07 1874.77,-1825.49 2048.05,-1864.13"/>
<polygon fill="orange" stroke="orange" stroke-width="3" points="2047.52,-1867.6 2058.04,-1866.36 2049.04,-1860.77 2047.52,-1867.6"/>
</g>
<!-- struct1&#45;&gt;Mobile Web Applications -->
<g id="edge6" class="edge"><title>struct1:epam&#45;&gt;Mobile Web Applications</title>
<path fill="none" stroke="#7ec0ee" stroke-width="3" d="M1402,-1834.07C1402,-1834.07 1657.27,-1942.61 1803.14,-2004.63"/>
<polygon fill="#7ec0ee" stroke="#7ec0ee" stroke-width="3" points="1802.01,-2007.95 1812.58,-2008.64 1804.75,-2001.51 1802.01,-2007.95"/>
</g>
<!-- struct1&#45;&gt;Mobile Web Applications -->
<g id="edge20" class="edge"><title>struct1:exposit&#45;&gt;Mobile Web Applications</title>
<path fill="none" stroke="orange" stroke-width="3" d="M1402,-1720.07C1402,-1720.07 1660.01,-1888.56 1805.47,-1983.55"/>
<polygon fill="orange" stroke="orange" stroke-width="3" points="1803.74,-1986.6 1814.02,-1989.14 1807.56,-1980.74 1803.74,-1986.6"/>
</g>
<!-- struct1&#45;&gt;Hypris -->
<g id="edge7" class="edge"><title>struct1:epam&#45;&gt;Hypris</title>
<path fill="none" stroke="#7ec0ee" stroke-width="3" d="M1402,-1834.07C1402,-1834.07 1536.6,-2004.38 1610.9,-2098.39"/>
<polygon fill="#7ec0ee" stroke="#7ec0ee" stroke-width="3" points="1608.29,-2100.73 1617.24,-2106.41 1613.79,-2096.39 1608.29,-2100.73"/>
</g>
<!-- struct1&#45;&gt;Linux -->
<g id="edge8" class="edge"><title>struct1:epam&#45;&gt;Linux</title>
<path fill="none" stroke="#7ec0ee" stroke-width="3" d="M1402,-1834.07C1402,-1834.07 1418.35,-2036.12 1426.92,-2141.95"/>
<polygon fill="#7ec0ee" stroke="#7ec0ee" stroke-width="3" points="1423.45,-2142.51 1427.75,-2152.19 1430.43,-2141.94 1423.45,-2142.51"/>
</g>
<!-- struct1&#45;&gt;Go -->
<g id="edge28" class="edge"><title>struct1:instinctools&#45;&gt;Go</title>
<path fill="none" stroke="cornflowerblue" stroke-width="3" d="M1262,-1948.07C1262,-1948.07 1233.92,-2064.13 1215.76,-2139.19"/>
<polygon fill="cornflowerblue" stroke="cornflowerblue" stroke-width="3" points="1212.32,-2138.49 1213.37,-2149.04 1219.13,-2140.14 1212.32,-2138.49"/>
</g>
<!-- struct1&#45;&gt;Blockchain -->
<g id="edge29" class="edge"><title>struct1:instinctools&#45;&gt;Blockchain</title>
<path fill="none" stroke="cornflowerblue" stroke-width="3" d="M1262,-1948.07C1262,-1948.07 1112.85,-2052.62 1029.72,-2110.89"/>
<polygon fill="cornflowerblue" stroke="cornflowerblue" stroke-width="3" points="1027.57,-2108.12 1021.39,-2116.72 1031.59,-2113.85 1027.57,-2108.12"/>
</g>
<!-- struct1&#45;&gt;Angular2 -->
<g id="edge30" class="edge"><title>struct1:instinctools&#45;&gt;Angular2</title>
<path fill="none" stroke="cornflowerblue" stroke-width="3" d="M1262,-1948.07C1262,-1948.07 952.573,-2011.51 822.692,-2038.14"/>
<polygon fill="cornflowerblue" stroke="cornflowerblue" stroke-width="3" points="821.638,-2034.78 812.545,-2040.22 823.044,-2041.64 821.638,-2034.78"/>
</g>
<!-- struct1&#45;&gt;Project manager -->
<g id="edge21" class="edge"><title>struct1:exposit&#45;&gt;Project manager</title>
<path fill="none" stroke="orange" stroke-width="3" d="M1262,-1720.07C1262,-1720.07 821.912,-1838 647.897,-1884.63"/>
<polygon fill="orange" stroke="orange" stroke-width="3" points="646.822,-1881.3 638.069,-1887.27 648.634,-1888.06 646.822,-1881.3"/>
</g>
<!-- struct1&#45;&gt;Android -->
<g id="edge9" class="edge"><title>struct1:epam&#45;&gt;Android</title>
<path fill="none" stroke="#7ec0ee" stroke-width="3" d="M1262,-1834.07C1262,-1834.07 659.72,-1751.24 478.117,-1726.26"/>
<polygon fill="#7ec0ee" stroke="#7ec0ee" stroke-width="3" points="478.407,-1722.76 468.024,-1724.87 477.454,-1729.7 478.407,-1722.76"/>
</g>
<!-- struct1&#45;&gt;Android -->
<g id="edge37" class="edge"><title>struct1:intexsoft&#45;&gt;Android</title>
<path fill="none" stroke="darkslategray" stroke-width="3" d="M1262,-1036.07C1262,-1036.07 654.914,-1532.69 475.967,-1679.07"/>
<polygon fill="darkslategray" stroke="darkslategray" stroke-width="3" points="473.548,-1676.53 468.024,-1685.57 477.98,-1681.95 473.548,-1676.53"/>
</g>
<!-- struct1&#45;&gt;Android -->
<g id="edge49" class="edge"><title>struct1:ITechArt&#45;&gt;Android</title>
<path fill="none" stroke="red" stroke-width="3" d="M1262,-1378.07C1262,-1378.07 657.92,-1624.84 477.306,-1698.62"/>
<polygon fill="red" stroke="red" stroke-width="3" points="475.958,-1695.39 468.024,-1702.41 478.605,-1701.87 475.958,-1695.39"/>
</g>
<!-- struct1&#45;&gt;Android -->
<g id="edge57" class="edge"><title>struct1:senla&#45;&gt;Android</title>
<path fill="none" stroke="mediumblue" stroke-width="3" d="M1262,-1264.07C1262,-1264.07 657.319,-1593.63 477.037,-1691.89"/>
<polygon fill="mediumblue" stroke="mediumblue" stroke-width="3" points="475.129,-1688.94 468.024,-1696.8 478.479,-1695.09 475.129,-1688.94"/>
</g>
<!-- struct1&#45;&gt;Business Analyst -->
<g id="edge22" class="edge"><title>struct1:exposit&#45;&gt;Business Analyst</title>
<path fill="none" stroke="orange" stroke-width="3" d="M1262,-1720.07C1262,-1720.07 621.957,-1569.74 395.036,-1516.44"/>
<polygon fill="orange" stroke="orange" stroke-width="3" points="395.728,-1513.01 385.193,-1514.13 394.128,-1519.83 395.728,-1513.01"/>
</g>
<!-- struct1&#45;&gt;Business Analyst -->
<g id="edge38" class="edge"><title>struct1:intexsoft&#45;&gt;Business Analyst</title>
<path fill="none" stroke="darkslategray" stroke-width="3" d="M1262,-1036.07C1262,-1036.07 620.688,-1349.35 394.363,-1459.91"/>
<polygon fill="darkslategray" stroke="darkslategray" stroke-width="3" points="392.642,-1456.86 385.193,-1464.39 395.715,-1463.15 392.642,-1456.86"/>
</g>
<!-- struct1&#45;&gt;Business Analyst -->
<g id="edge68" class="edge"><title>struct1:godel&#45;&gt;Business Analyst</title>
<path fill="none" stroke="red" stroke-width="3" d="M1262,-1150.07C1262,-1150.07 621.322,-1385.8 394.699,-1469.18"/>
<polygon fill="red" stroke="red" stroke-width="3" points="393.369,-1465.94 385.193,-1472.68 395.787,-1472.51 393.369,-1465.94"/>
</g>
<!-- struct1&#45;&gt;1C -->
<g id="edge58" class="edge"><title>struct1:softservise&#45;&gt;1C</title>
<path fill="none" stroke="dodgerblue" stroke-width="3" d="M1262,-1492.07C1262,-1492.07 558.476,-1321.71 329.357,-1266.22"/>
<polygon fill="dodgerblue" stroke="dodgerblue" stroke-width="3" points="330,-1262.78 319.457,-1263.83 328.353,-1269.58 330,-1262.78"/>
</g>
<!-- struct1&#45;&gt;1C -->
<g id="edge59" class="edge"><title>struct1:academic&#45;&gt;1C</title>
<path fill="none" stroke="green" stroke-width="3" d="M1262,-922.072C1262,-922.072 557.778,-1151.41 329.017,-1225.91"/>
<polygon fill="green" stroke="green" stroke-width="3" points="327.882,-1222.6 319.457,-1229.03 330.05,-1229.26 327.882,-1222.6"/>
</g>
</g>
</svg>
